#!OML:ASF H:\Punching\Project 1\Capture day 1\Session 1\female.ASF
:FULLY-SPECIFIED
:DEGREES
830
root -2.09989 14.6565 9.23669 16.8998 0.567537 5.51204
lowerback 0.875302 -3.3252 -2.54212
upperback -6.59609 -4.46432 2.31508
thorax -6.99511 -1.99321 4.14296
lowerneck -13.0902 -7.05063 -2.4189
upperneck 22.164 -9.26038 -0.356526
head 9.21738 -4.57729 -0.813387
rclavicle 2.08724e-015 -1.27222e-014
rhumerus 11.1366 -36.4567 -48.6082
rradius 72.8863
rwrist 2.20379
rhand -44.0932 13.3933
rfingers 7.12502
rthumb -16.9109 -15.8904
lclavicle 2.08724e-015 -1.27222e-014
lhumerus -27.7508 -45.8419 99.1968
lradius 128.318
lwrist -3.64158
lhand -28.3611 4.80528
lfingers 7.12502
lthumb -1.73466 34.778
rfemur -49.4312 -8.11162 11.0671
rtibia 62.004
rfoot -22.918 -13.1557
rtoes -4.33529
lfemur 4.53062 -9.91336 -7.15864
ltibia -5.08889e-014
lfoot -16.4541 22.3695
ltoes -8.04789
831
root -2.11668 14.6513 9.25401 16.9063 0.513208 5.5981
lowerback 0.817867 -3.35695 -2.5929
upperback -6.61741 -4.50856 2.31581
thorax -6.97736 -2.01264 4.17132
lowerneck -13.1257 -6.92529 -2.35774
upperneck 22.3185 -9.08359 -0.439481
head 9.26839 -4.49748 -0.835207
rclavicle 4.86029e-014 1.11319e-014
rhumerus 10.4089 -35.2655 -47.8465
rradius 73.6672
rwrist 0.428114
rhand -43.4413 14.3943
rfingers 7.12502
rthumb -16.2833 -14.942
lclavicle 4.86029e-014 1.11319e-014
lhumerus -27.9249 -45.6544 99.4259
lradius 128.399
lwrist -3.01337
lhand -28.0961 4.65923
lfingers 7.12502
lthumb -1.47868 34.6339
rfemur -49.4526 -7.9627 11.0117
rtibia 62.1776
rfoot -23.0738 -13.3493
rtoes -4.3107
lfemur 4.59628 -9.84506 -7.19657
ltibia 3.18055e-014
lfoot -16.4145 22.2942
ltoes -7.95515
832
root -2.13113 14.6469 9.26888 16.9052 0.402687 5.70266
lowerback 0.726636 -3.37297 -2.66092
upperback -6.62019 -4.53361 2.28076
thorax -6.92322 -2.024 4.16703
lowerneck -13.1328 -6.79661 -2.2716
upperneck 22.439 -8.91821 -0.477273
head 9.30371 -4.41661 -0.845083
rclavicle -4.52235e-014 -1.43125e-014
rhumerus 9.81759 -33.839 -47.2678
rradius 74.3539
rwrist -0.968086
rhand -42.9591 15.1613
rfingers 7.12502
rthumb -15.8189 -14.2124
lclavicle -4.52235e-014 -1.43125e-014
lhumerus -27.9868 -45.5636 99.57
lradius 128.459
lwrist -2.60468
lhand -27.8905 4.64242
lfingers 7.12502
lthumb -1.28017 34.6183
rfemur -49.4835 -7.80508 10.9228
rtibia 62.3291
rfoot -23.2144 -13.4927
rtoes -4.28449
lfemur 4.67926 -9.73176 -7.28293
ltibia -3.81667e-014
lfoot -16.3445 22.2226
ltoes -7.93482
833
root -2.14229 14.6432 9.28289 16.8783 0.254735 5.83219
lowerback 0.602416 -3.38224 -2.7401
upperback -6.60119 -4.55108 2.20904
thorax -6.82928 -2.03359 4.12641
lowerneck -13.1066 -6.66179 -2.15612
upperneck 22.5333 -8.75843 -0.484208
head 9.32407 -4.33311 -0.847874
rclavicle -2.88238e-015 4.37326e-014
rhumerus 9.42756 -32.3216 -46.9434
rradius 74.8265
rwrist -1.79113
rhand -42.5925 15.5915
rfingers 7.12502
rthumb -15.4659 -13.8099
lclavicle -2.88238e-015 4.37326e-014
lhumerus -27.929 -45.5293 99.6087
lradius 128.494
lwrist -2.37757
lhand -27.6877 4.63912
lfingers 7.12502
lthumb -1.08427 34.6161
rfemur -49.489 -7.67516 10.7924
rtibia 62.4603
rfoot -23.3512 -13.5664
rtoes -4.2837
lfemur 4.80084 -9.59792 -7.43021
ltibia 3.18055e-015
lfoot -16.2652 22.1613
ltoes -7.99258
834
root -2.14999 14.6403 9.29536 16.8213 0.0779041 5.97399
lowerback 0.466407 -3.38536 -2.81732
upperback -6.5655 -4.56109 2.10658
thorax -6.71388 -2.04137 4.05038
lowerneck -13.0579 -6.52135 -2.01101
upperneck 22.6209 -8.60297 -0.470281
head 9.33769 -4.24711 -0.847855
rclavicle -4.42296e-014 -1.59028e-015
rhumerus 9.25195 -30.8266 -46.8944
rradius 75.0322
rwrist -1.97661
rhand -42.3966 15.6448
rfingers 7.12502
rthumb -15.2772 -13.771
lclavicle -4.42296e-014 -1.59028e-015
lhumerus -27.7706 -45.553 99.5494
lradius 128.494
lwrist -2.36887
lhand -27.5444 4.68932
lfingers 7.12502
lthumb -0.945873 34.667
rfemur -49.4658 -7.57424 10.635
rtibia 62.5691
rfoot -23.4763 -13.5713
rtoes -4.31529
lfemur 4.95966 -9.44786 -7.62078
ltibia 1.90833e-014
lfoot -16.1948 22.1031
ltoes -8.04893
835
root -2.15404 14.6383 9.30569 16.7344 -0.119553 6.11623
lowerback 0.337759 -3.38113 -2.87725
upperback -6.52118 -4.56146 1.97943
thorax -6.5976 -2.04619 3.93875
lowerneck -12.9959 -6.37707 -1.843
upperneck 22.7193 -8.45112 -0.443206
head 9.35236 -4.15943 -0.847351
rclavicle 1.23246e-014 -1.98785e-014
rhumerus 9.26718 -29.4376 -47.1115
rradius 74.9756
rwrist -1.542
rhand -42.3866 15.3801
rfingers 7.12502
rthumb -15.2676 -14.0364
lclavicle 1.23246e-014 -1.98785e-014
lhumerus -27.5001 -45.5956 99.3785
lradius 128.463
lwrist -2.44227
lhand -27.3829 4.66408
lfingers 7.12502
lthumb -0.789915 34.6424
rfemur -49.4121 -7.50259 10.4635
rtibia 62.6498
rfoot -23.5846 -13.507
rtoes -4.37091
lfemur 5.14831 -9.28475 -7.8383
ltibia -3.18055e-014
lfoot -16.1194 22.0517
ltoes -8.1537
